<svg width="43" height="76" viewBox="0 0 43 76" fill="none" xmlns="http://www.w3.org/2000/svg">
<path fill-rule="evenodd" clip-rule="evenodd" d="M41.7676 28.7896C37.8303 40.0461 25.5516 45.9439 14.3561 41.9796C3.15416 38.0115 -2.71601 25.682 1.22771 14.4255C5.1844 3.17164 17.4566 -2.73202 28.6456 1.23548C39.8411 5.20298 45.7178 17.5357 41.7676 28.7896Z" fill="url(#paint0_linear)"/>
<path fill-rule="evenodd" clip-rule="evenodd" d="M42.9935 56.7935L43 58.9839C43.013 63.1333 33.4067 66.535 21.5301 66.5812C9.66003 66.6217 0.0277599 63.2917 0.0147872 59.1365L0.00830078 56.9552L42.9935 56.7935Z" fill="url(#paint1_linear)"/>
<path fill-rule="evenodd" clip-rule="evenodd" d="M42.9936 56.7935C43.0065 60.9513 33.3937 64.3536 21.5301 64.3914C9.65356 64.4319 0.0212867 61.1045 0.0083139 56.9552C-0.00465886 52.7999 9.60815 49.3983 21.4782 49.3546C33.3418 49.3142 42.9806 52.6441 42.9936 56.7935Z" fill="url(#paint2_linear)"/>
<path fill-rule="evenodd" clip-rule="evenodd" d="M0.00830078 73.498C0.00830078 72.8891 9.63409 72.2861 21.5042 72.2861C33.3742 72.2861 43 72.8891 43 73.498V74.7933C43 75.3996 33.3742 76 21.5042 76C9.63409 76 0.00830078 75.3996 0.00830078 74.7933V73.498Z" fill="url(#paint3_linear)"/>
<defs>
<linearGradient id="paint0_linear" x1="16.2632" y1="28.6736" x2="49.1586" y2="-15.2665" gradientUnits="userSpaceOnUse">
<stop stop-color="#C72536"/>
<stop offset="1" stop-color="#E5762B"/>
</linearGradient>
<linearGradient id="paint1_linear" x1="28.7884" y1="61.6105" x2="43.7504" y2="69.1739" gradientUnits="userSpaceOnUse">
<stop stop-color="#8F2033"/>
<stop offset="1" stop-color="#B02837"/>
</linearGradient>
<linearGradient id="paint2_linear" x1="18.8058" y1="58.2297" x2="26.4313" y2="26.9414" gradientUnits="userSpaceOnUse">
<stop stop-color="#C72536"/>
<stop offset="1" stop-color="#EA8B31"/>
</linearGradient>
<linearGradient id="paint3_linear" x1="16.9961" y1="74.324" x2="15.868" y2="80.3805" gradientUnits="userSpaceOnUse">
<stop stop-color="#8F2033"/>
<stop offset="1" stop-color="#B02837"/>
</linearGradient>
</defs>
</svg>
