<svg width="185" height="60" viewBox="0 0 185 60" fill="none" xmlns="http://www.w3.org/2000/svg">
<path d="M11.6537 33.9636C13.2613 34.533 14.896 34.8477 16.5144 34.9398H18.3981C25.229 34.5655 31.4862 30.1616 33.9003 23.295C37.1046 14.1885 32.3306 4.20883 23.2533 0.997971C21.3372 0.320002 19.3778 0 17.4508 0C10.2572 0 3.52912 4.49086 0.995952 11.6719C0.33018 13.5757 0.00541278 15.5227 0 17.4373V17.5404C0.0216512 24.7269 4.49802 31.4415 11.6537 33.969V33.9636Z" fill="#EE303C"/>
<path d="M0.0108284 47.8538C0.021654 51.2166 7.84313 53.9067 17.4778 53.8796C27.1126 53.8416 34.9125 51.0864 34.9016 47.7291V45.9609C34.8853 42.62 27.1613 39.9351 17.6024 39.9351H17.4345C7.7944 39.9731 -0.00540996 42.723 2.81549e-06 46.0911V47.8538H0.0108284Z" fill="#EE303C"/>
<path fill-rule="evenodd" clip-rule="evenodd" d="M0.00585938 59.4715C0.00585938 58.9779 7.8165 58.4897 17.4513 58.4897C27.0859 58.4897 34.8966 58.9779 34.8966 59.4715V60H0.00585938V59.4715Z" fill="#EE303C"/>
<path d="M126.843 48.1494H119.703V13.356H148.77V48.1494H141.679V19.7668H126.848V48.1494H126.843Z" fill="#0A3B63"/>
<path d="M103.687 42.129C100.277 42.1182 97.4682 41.0606 95.2651 38.9507C93.0189 36.7976 91.893 34.064 91.893 30.75C91.893 27.4361 92.9865 24.7188 95.1678 22.5981C97.414 20.4449 100.175 19.3656 103.449 19.3656C103.449 19.3656 107.763 19.3221 110.621 20.933L113.988 15.7154C113.988 15.7154 110.264 12.6564 103.401 12.6564C97.8796 12.6564 93.3274 14.4896 89.9065 17.7276C86.3665 21.1065 84.6021 25.451 84.6021 30.75C84.6021 36.0491 86.3882 40.3284 89.9606 43.7724C93.3815 47.0051 97.8958 48.8436 103.401 48.8436C110.264 48.8436 113.988 45.7847 113.988 45.7847L110.621 40.5671C108.158 41.9609 104.619 42.1182 103.687 42.1344V42.129Z" fill="#0A3B63"/>
<path d="M76.4016 28.5154C74.0849 26.3947 70.8968 25.3371 66.8264 25.3371H59.3621V19.7722H77.5112V13.3614H52.2227V48.1494H66.8264C70.8914 48.1494 74.1011 47.1027 76.4502 45.0199C78.794 42.8667 79.974 40.1169 79.974 36.7704C79.974 33.4239 78.7832 30.6741 76.4016 28.5208V28.5154ZM71.0916 40.4965C69.9657 41.3914 68.3636 41.8362 66.2796 41.8362H59.3621V31.2978H66.2796C68.3312 31.2978 69.9279 31.7643 71.0646 32.6917C72.2067 33.6192 72.7751 34.9263 72.7751 36.6184C72.7751 38.3107 72.2121 39.6015 71.0862 40.4965H71.0916Z" fill="#0A3B63"/>
<path d="M180.927 28.5154C178.611 26.3947 175.424 25.3371 171.353 25.3371H163.889V19.7722H182.037V13.3614H156.749V48.1494H171.353C175.418 48.1494 178.628 47.1027 180.977 45.0199C183.32 42.8667 184.5 40.1169 184.5 36.7704C184.5 33.4239 183.309 30.6741 180.927 28.5208V28.5154ZM175.617 40.4965C174.492 41.3914 172.89 41.8362 170.805 41.8362H163.889V31.2978H170.805C172.857 31.2978 174.455 31.7643 175.59 32.6917C176.733 33.6192 177.302 34.9263 177.302 36.6184C177.302 38.3107 176.738 39.6015 175.613 40.4965H175.617Z" fill="#0A3B63"/>
</svg>
